<?xml version="1.0" encoding="UTF-8" standalone="no"?>
<svg xmlns="http://www.w3.org/2000/svg" viewBox="0 0 100 100" width="100" height="100">
  <!-- Background circle -->
  <circle cx="50" cy="50" r="45" fill="#4a6fa5"/>
  
  <!-- Terminal window -->
  <rect x="20" y="30" width="60" height="40" rx="3" ry="3" fill="#2d2d2d"/>
  
  <!-- Terminal header -->
  <rect x="20" y="30" width="60" height="6" rx="3" ry="3" fill="#333"/>
  
  <!-- Terminal window controls -->
  <circle cx="24" cy="33" r="1.5" fill="#ff5f57"/>
  <circle cx="29" cy="33" r="1.5" fill="#febc2e"/>
  <circle cx="34" cy="33" r="1.5" fill="#28c840"/>
  
  <!-- Command line prompt symbol -->
  <text x="25" y="50" fill="#4a6fa5" font-family="monospace" font-size="16" font-weight="bold">$</text>
  
  <!-- AI wave symbol -->
  <path d="M40 45 Q45 40, 50 45 T60 45 T70 45" stroke="#03a9f4" stroke-width="2" fill="none"/>
  <path d="M40 50 Q45 45, 50 50 T60 50 T70 50" stroke="#03a9f4" stroke-width="2" fill="none"/>
  <path d="M40 55 Q45 50, 50 55 T60 55 T70 55" stroke="#03a9f4" stroke-width="2" fill="none"/>
  
  <!-- Cog/gear symbol for automation -->
  <g transform="translate(75, 25) scale(0.6)">
    <circle cx="0" cy="0" r="8" fill="#fafafa"/>
    <path d="M0,-10 L2,-8 L-2,-8 Z M10,0 L8,2 L8,-2 Z M0,10 L-2,8 L2,8 Z M-10,0 L-8,-2 L-8,2 Z" fill="#fafafa"/>
    <path d="M7,-7 L9,-5 L5,-5 Z M7,7 L5,9 L5,5 Z M-7,7 L-9,5 L-5,5 Z M-7,-7 L-5,-9 L-5,-5 Z" fill="#fafafa"/>
    <circle cx="0" cy="0" r="4" fill="#4a6fa5"/>
  </g>
</svg> 